<svg style="width: 1em; height: 1em;vertical-align: middle;fill: currentColor;overflow: hidden;" viewBox="0 0 1024 1024" version="1.1" xmlns="http://www.w3.org/2000/svg"><path d="M295.424 801.856l9.28 3.456c26.048 9.216 52.48 17.344 79.296 23.936 90.624 22.144 185.472 28.48 277.888 14.72 20.224-3.008 40.32-6.976 60.16-11.904 10.816-2.688 21.696-5.376 32.192-9.152a164.672 164.672 0 0 0 59.904-37.632c40.256-39.872 57.856-97.984 59.456-153.6a278.016 278.016 0 0 0-6.912-71.04 210.56 210.56 0 0 0-24.448-62.208 120.128 120.128 0 0 0-26.624-31.296 121.216 121.216 0 0 0-29.952-16.576 184.512 184.512 0 0 0-67.52-14.592c-18.688-0.448-37.184 1.6-55.744 2.496-4.608 0.064-9.152 0.128-13.76-0.064a84.48 84.48 0 0 1-29.12-6.528 99.648 99.648 0 0 1-28.032-20.992 212.48 212.48 0 0 1-47.168-70.4 299.136 299.136 0 0 1-10.496-29.504 451.968 451.968 0 0 1-9.664-40.128c-3.968-21.056-6.976-42.24-10.88-63.36a137.408 137.408 0 0 0-6.848-25.088c-1.216-2.944-2.752-6.848-5.504-8.832a5.696 5.696 0 0 0-2.304-0.704c-1.152-0.128-2.304-0.064-3.456 0a279.488 279.488 0 0 0-14.528 1.536c-12.736 1.984-25.984 4.864-36.8 12.288a36.608 36.608 0 0 0-7.296 6.4c-8.576 10.048-9.856 24.32-9.408 36.992a163.392 163.392 0 0 0 1.92 19.2 407.04 407.04 0 0 0 6.016 29.568c1.984 8.128 4.16 16.192 6.4 24.192 2.816 10.368 5.952 20.672 8.64 31.04 0.768 3.392 0.704 3.392 1.344 6.848 1.024 8.064 1.28 16.128 0.192 24.192a123.456 123.456 0 0 1-6.528 24.832 135.616 135.616 0 0 1-40.576 60.288 105.984 105.984 0 0 1-24.96 15.552 34.368 34.368 0 0 1-14.272 3.584 25.856 25.856 0 0 1-24.832-31.04 26.496 26.496 0 0 1 12.288-16.768c3.392-1.728 6.976-2.88 10.304-4.672 17.216-9.984 28.352-27.328 34.432-45.888 1.216-3.712 2.496-7.424 3.2-11.264a35.712 35.712 0 0 0-0.768-15.168c-4.48-14.912-8.448-30.016-12.416-45.056a507.584 507.584 0 0 1-7.68-34.048c-5.504-30.08-7.296-63.232 7.744-91.008a82.56 82.56 0 0 1 27.264-30.016c9.536-6.592 20.224-11.328 31.296-14.784 15.552-4.8 31.936-7.232 48.192-8.064h5.312c6.208 0.384 12.288 1.408 18.176 3.52a58.496 58.496 0 0 1 9.472 4.544c23.552 14.272 31.104 42.816 36.224 68.096 3.904 21.056 6.912 42.24 10.944 63.296 7.168 36.16 18.112 72.512 41.92 101.44 4.544 5.504 9.472 10.624 14.784 15.424 3.2 2.944 6.528 6.336 10.752 7.808 7.232 2.432 15.744 1.728 23.168 1.344 11.2-0.576 22.336-1.6 33.536-2.112 6.848-0.256 6.784-0.256 13.632-0.32a236.352 236.352 0 0 1 93.184 18.688c16.256 6.784 31.808 14.912 45.312 26.432 34.176 29.12 54.272 72.256 64.832 115.2a337.92 337.92 0 0 1 9.28 83.648c-1.088 73.344-26.112 149.312-81.536 199.616a216.128 216.128 0 0 1-52.8 35.072 307.328 307.328 0 0 1-56.192 18.496c-21.376 5.312-43.072 9.6-64.896 12.8-81.408 12.16-164.608 9.792-245.568-4.608-28.48-5.12-56.832-11.584-84.608-19.712-25.152-7.36-49.92-15.808-74.304-25.28-25.28 0.704-50.56-0.128-75.84-0.128a95.232 95.232 0 0 1-25.728-3.84 90.368 90.368 0 0 1-56.704-51.456 95.68 95.68 0 0 1-6.72-29.824c-1.856-75.712-0.128-151.424-0.128-227.136a90.24 90.24 0 0 1 55.36-82.432c9.536-3.968 19.52-5.952 29.824-6.72 28.672-0.704 57.344-1.088 86.016-0.064a28.032 28.032 0 0 1 8.832 2.24 26.24 26.24 0 0 1 14.912 21.504 4988.8 4988.8 0 0 1 0.64 334.72z m-51.776-307.328h-53.888a38.72 38.72 0 0 0-38.656 36.48 4594.432 4594.432 0 0 0 0 226.176 38.784 38.784 0 0 0 38.656 36.48h53.888V494.528z" fill="#515151" /></svg>