<svg style="width: 1em; height: 1em;vertical-align: middle;fill: currentColor;overflow: hidden;" viewBox="0 0 1024 1024" version="1.1" xmlns="http://www.w3.org/2000/svg"><path d="M505.477547 832c-184.96 0-368.64-129.706667-478.848-251.093333a102.698667 102.698667 0 0 1-0.085334-137.898667C136.837547 321.621333 320.517547 192 505.43488 192l6.912 0.042667 6.229333-0.042667c184.917333 0 368.682667 129.621333 478.976 250.922667 35.498667 39.381333 35.541333 98.645333 0.085334 137.941333-110.336 121.429333-294.4 251.136-480.170667 251.136l-5.845333-0.042667-6.144 0.042667z m12.288-64c164.693333 0 331.392-118.869333 432.469333-230.144a38.784 38.784 0 0 0-0.085333-52.010667c-101.034667-111.104-267.434667-229.888-431.189334-229.888L511.536213 256h-5.589333C341.59488 256 175.06688 374.784 74.032213 485.973333a38.784 38.784 0 0 0 0.085334 52.010667C175.06688 649.130667 341.59488 768 506.160213 768l5.632-0.042667 5.973334 0.042667z"  /><path d="M512.048213 704a192.213333 192.213333 0 0 1-192-192c0-105.856 86.144-192 192-192s192 86.144 192 192-86.144 192-192 192zM512.09088 384a128.170667 128.170667 0 0 0-128.042667 128c0 70.570667 57.429333 128 128 128s128-57.429333 128-128S582.61888 384 512.09088 384z"  /></svg>